<svg aria-hidden="true" style="position: absolute; width: 0; height: 0; overflow: hidden;" version="1.1" xmlns="http://www.w3.org/2000/svg" xmlns:xlink="http://www.w3.org/1999/xlink">
<defs>
<symbol id="icon-gr" viewBox="0 0 28 32">
<path fill="#008fdd" style="fill: var(--color1, #008fdd)" d="M4.795 0.475c-2.057 1.44-2.6 4.305-1.159 6.362l7.408 10.58-2.694 3.847c-2.473-1.432-5.674-0.758-7.343 1.627-1.763 2.518-1.151 5.988 1.367 7.752s5.989 1.152 7.753-1.367c0.63-0.89 1.007-1.997 1.007-3.193 0-0.903-0.215-1.756-0.597-2.51l0.015 0.032 3.299-4.712 3.299 4.712c-0.367 0.722-0.582 1.575-0.582 2.478 0 1.196 0.377 2.303 1.019 3.21l-0.012-0.017c1.764 2.518 5.235 3.13 7.753 1.367s3.13-5.234 1.367-7.752c-1.67-2.385-4.87-3.059-7.343-1.626l-2.694-3.847 7.408-10.579c1.44-2.058 0.898-4.922-1.159-6.363l-9.055 12.934-9.056-12.934zM8.465 26.071c0 1.594-1.292 2.886-2.886 2.886s-2.886-1.292-2.886-2.886v0c0-1.594 1.292-2.886 2.886-2.886s2.886 1.292 2.886 2.886v0zM25.009 26.071c0 1.594-1.292 2.886-2.886 2.886s-2.886-1.292-2.886-2.886v0c0-1.594 1.292-2.886 2.886-2.886s2.886 1.292 2.886 2.886v0z"></path>
</symbol>
<symbol id="icon-electric" viewBox="0 0 32 32">
<path fill="#008fdd" style="fill: var(--color1, #008fdd)" d="M15.21 12.674v-1.511h1.511v1.511h-1.511zM15.432 20.467c-0.137 0.136-0.221 0.324-0.221 0.532 0 0.001 0 0.002 0 0.002v-0 2.834c0 0.202 0.079 0.392 0.221 0.534s0.333 0.221 0.534 0.221c0.202 0 0.391-0.078 0.534-0.221 0.142-0.143 0.221-0.333 0.221-0.534v-2.834c0-0.202-0.078-0.392-0.221-0.534-0.136-0.137-0.324-0.221-0.532-0.221-0.001 0-0.002 0-0.002 0h0c-0.202 0-0.392 0.078-0.534 0.221z"></path>
<path fill="#008fdd" style="fill: var(--color1, #008fdd)" d="M18.045 13.335c0 0 0 0.001 0 0.001 0 0.183-0.074 0.348-0.194 0.467l-0 0c-0.119 0.12-0.285 0.194-0.467 0.194-0 0-0.001 0-0.001 0h-2.834c-0 0-0 0-0 0-0.365 0-0.661-0.296-0.661-0.661v0-2.173h-3.897v12.319c0 1.597 0.622 3.097 1.75 4.226 0.927 0.932 2.161 1.557 3.537 1.711l0.027 0.002v1.576c0 0.365 0.296 0.661 0.661 0.661s0.661-0.296 0.661-0.661v-1.576c1.403-0.157 2.637-0.782 3.564-1.714l0-0c1.081-1.075 1.75-2.564 1.75-4.209 0-0.006 0-0.011-0-0.017v0.001-12.319h-3.897v2.172zM18.045 21.002v2.834c0 0.002 0 0.004 0 0.005 0 0.572-0.233 1.090-0.609 1.464l-0 0c-0.374 0.376-0.892 0.609-1.464 0.609-0.002 0-0.004 0-0.006 0h0c-0.002 0-0.003 0-0.005 0-0.572 0-1.090-0.233-1.464-0.609l-0-0c-0.376-0.374-0.609-0.892-0.609-1.464 0-0.002 0-0.004 0-0.006v0-2.834c0-0.002 0-0.004 0-0.006 0-0.572 0.233-1.090 0.609-1.464l0-0c0.374-0.376 0.892-0.609 1.464-0.609 0.002 0 0.004 0 0.006 0h-0c0.555 0 1.077 0.216 1.47 0.609 0.376 0.374 0.609 0.892 0.609 1.464 0 0.002 0 0.004 0 0.006v-0zM21.28 5.588c-0.365 0-0.661 0.296-0.661 0.661v0 0.755h-0.803v-0.755c-0.012-0.356-0.303-0.641-0.661-0.641s-0.65 0.285-0.661 0.64l-0 0.001v0.755h-0.803v-0.755c0-0.006 0-0.014 0-0.021 0-0.365-0.296-0.662-0.662-0.662s-0.662 0.296-0.662 0.662c0 0.007 0 0.015 0 0.022l-0-0.001v0.755h-0.803v-0.755c0-0.365-0.296-0.661-0.661-0.661s-0.661 0.296-0.661 0.661v0l-0 0.755h-0.803v-0.755c0-0.365-0.296-0.661-0.661-0.661s-0.661 0.296-0.661 0.661v0 0.755h-0.803v-0.755c0-0.365-0.296-0.661-0.661-0.661s-0.661 0.296-0.661 0.661v0 3.59l11.951-0v-3.59c0-0 0-0 0-0 0-0.365-0.296-0.661-0.661-0.661-0 0-0 0-0 0h0z"></path>
</symbol>
<symbol id="icon-cleanser" viewBox="0 0 32 32">
<path fill="#008fdd" style="fill: var(--color1, #008fdd)" d="M3.75 0v3.75h-0.937v1.875h7.5v-1.875h-0.938v-1.875h4.299l1.601 1.6 1.326-1.325-2.149-2.15h-10.701zM22.562 25.376c0.012 0.508 0.427 0.916 0.937 0.916s0.926-0.408 0.937-0.916l0-0.001c-0.008-0.288-0.398-1.104-0.937-2.012-0.54 0.91-0.93 1.726-0.938 2.013z"></path>
<path fill="#008fdd" style="fill: var(--color1, #008fdd)" d="M28.25 15.062v-1.874h-9.5v1.875h-1.517c-1.61 3.253-2.233 6.197-2.233 8.438 0 2.238 0.621 5.244 2.233 8.5h12.534c1.61-3.254 2.233-6.26 2.233-8.5 0-2.238-0.621-5.181-2.233-8.438h-1.517zM23.5 28.187c-1.553-0.002-2.811-1.26-2.813-2.812v-0c0-1.199 1.427-3.394 2.041-4.283l0.772-1.117 0.772 1.117c0.613 0.889 2.041 3.084 2.041 4.283 0 1.551-1.262 2.812-2.813 2.812zM18.75 5.625h9.5v5.687h-9.5v-5.687zM5.625 21.626c0.021 0.502 0.432 0.901 0.937 0.901s0.917-0.399 0.937-0.9l0-0.002c-0.008-0.288-0.399-1.105-0.938-2.012-0.54 0.91-0.93 1.726-0.937 2.013zM0 28.188h13.125v3.812h-13.125v-3.812zM0 7.5h13.125v3.812h-13.125v-3.812z"></path>
<path fill="#008fdd" style="fill: var(--color1, #008fdd)" d="M13.125 13.188h-13.125v13.125h13.125v-13.125zM6.562 24.437c-1.552-0.002-2.81-1.26-2.812-2.812v-0c0-1.199 1.427-3.394 2.040-4.283l0.772-1.117 0.772 1.117c0.613 0.889 2.041 3.085 2.041 4.283 0 1.551-1.262 2.812-2.812 2.812z"></path>
</symbol>
</defs>
</svg>
