<svg aria-hidden="true" style="position: absolute; width: 0; height: 0; overflow: hidden;" version="1.1" xmlns="http://www.w3.org/2000/svg" xmlns:xlink="http://www.w3.org/1999/xlink">
<defs>
<symbol id="icon-gr" viewBox="0 0 28 32">
<path  d="M4.795 0.475c-2.057 1.44-2.6 4.305-1.159 6.362l7.408 10.58-2.694 3.847c-2.473-1.432-5.674-0.758-7.343 1.627-1.763 2.518-1.151 5.988 1.367 7.752s5.989 1.152 7.753-1.367c0.63-0.89 1.007-1.997 1.007-3.193 0-0.903-0.215-1.756-0.597-2.51l0.015 0.032 3.299-4.712 3.299 4.712c-0.367 0.722-0.582 1.575-0.582 2.478 0 1.196 0.377 2.303 1.019 3.21l-0.012-0.017c1.764 2.518 5.235 3.13 7.753 1.367s3.13-5.234 1.367-7.752c-1.67-2.385-4.87-3.059-7.343-1.626l-2.694-3.847 7.408-10.579c1.44-2.058 0.898-4.922-1.159-6.363l-9.055 12.934-9.056-12.934zM8.465 26.071c0 1.594-1.292 2.886-2.886 2.886s-2.886-1.292-2.886-2.886v0c0-1.594 1.292-2.886 2.886-2.886s2.886 1.292 2.886 2.886v0zM25.009 26.071c0 1.594-1.292 2.886-2.886 2.886s-2.886-1.292-2.886-2.886v0c0-1.594 1.292-2.886 2.886-2.886s2.886 1.292 2.886 2.886v0z"></path>
</symbol>
<symbol id="icon-electric" viewBox="0 0 32 32">
<path  d="M15.21 12.674v-1.511h1.511v1.511h-1.511zM15.432 20.467c-0.137 0.136-0.221 0.324-0.221 0.532 0 0.001 0 0.002 0 0.002v-0 2.834c0 0.202 0.079 0.392 0.221 0.534s0.333 0.221 0.534 0.221c0.202 0 0.391-0.078 0.534-0.221 0.142-0.143 0.221-0.333 0.221-0.534v-2.834c0-0.202-0.078-0.392-0.221-0.534-0.136-0.137-0.324-0.221-0.532-0.221-0.001 0-0.002 0-0.002 0h0c-0.202 0-0.392 0.078-0.534 0.221z"></path>
<path  d="M18.045 13.335c0 0 0 0.001 0 0.001 0 0.183-0.074 0.348-0.194 0.467l-0 0c-0.119 0.12-0.285 0.194-0.467 0.194-0 0-0.001 0-0.001 0h-2.834c-0 0-0 0-0 0-0.365 0-0.661-0.296-0.661-0.661v0-2.173h-3.897v12.319c0 1.597 0.622 3.097 1.75 4.226 0.927 0.932 2.161 1.557 3.537 1.711l0.027 0.002v1.576c0 0.365 0.296 0.661 0.661 0.661s0.661-0.296 0.661-0.661v-1.576c1.403-0.157 2.637-0.782 3.564-1.714l0-0c1.081-1.075 1.75-2.564 1.75-4.209 0-0.006 0-0.011-0-0.017v0.001-12.319h-3.897v2.172zM18.045 21.002v2.834c0 0.002 0 0.004 0 0.005 0 0.572-0.233 1.090-0.609 1.464l-0 0c-0.374 0.376-0.892 0.609-1.464 0.609-0.002 0-0.004 0-0.006 0h0c-0.002 0-0.003 0-0.005 0-0.572 0-1.090-0.233-1.464-0.609l-0-0c-0.376-0.374-0.609-0.892-0.609-1.464 0-0.002 0-0.004 0-0.006v0-2.834c0-0.002 0-0.004 0-0.006 0-0.572 0.233-1.090 0.609-1.464l0-0c0.374-0.376 0.892-0.609 1.464-0.609 0.002 0 0.004 0 0.006 0h-0c0.555 0 1.077 0.216 1.47 0.609 0.376 0.374 0.609 0.892 0.609 1.464 0 0.002 0 0.004 0 0.006v-0zM21.28 5.588c-0.365 0-0.661 0.296-0.661 0.661v0 0.755h-0.803v-0.755c-0.012-0.356-0.303-0.641-0.661-0.641s-0.65 0.285-0.661 0.64l-0 0.001v0.755h-0.803v-0.755c0-0.006 0-0.014 0-0.021 0-0.365-0.296-0.662-0.662-0.662s-0.662 0.296-0.662 0.662c0 0.007 0 0.015 0 0.022l-0-0.001v0.755h-0.803v-0.755c0-0.365-0.296-0.661-0.661-0.661s-0.661 0.296-0.661 0.661v0l-0 0.755h-0.803v-0.755c0-0.365-0.296-0.661-0.661-0.661s-0.661 0.296-0.661 0.661v0 0.755h-0.803v-0.755c0-0.365-0.296-0.661-0.661-0.661s-0.661 0.296-0.661 0.661v0 3.59l11.951-0v-3.59c0-0 0-0 0-0 0-0.365-0.296-0.661-0.661-0.661-0 0-0 0-0 0h0z"></path>
</symbol>
<symbol id="icon-cleanser" viewBox="0 0 32 32">
<path  d="M3.75 0v3.75h-0.937v1.875h7.5v-1.875h-0.938v-1.875h4.299l1.601 1.6 1.326-1.325-2.149-2.15h-10.701zM22.562 25.376c0.012 0.508 0.427 0.916 0.937 0.916s0.926-0.408 0.937-0.916l0-0.001c-0.008-0.288-0.398-1.104-0.937-2.012-0.54 0.91-0.93 1.726-0.938 2.013z"></path>
<path  d="M28.25 15.062v-1.874h-9.5v1.875h-1.517c-1.61 3.253-2.233 6.197-2.233 8.438 0 2.238 0.621 5.244 2.233 8.5h12.534c1.61-3.254 2.233-6.26 2.233-8.5 0-2.238-0.621-5.181-2.233-8.438h-1.517zM23.5 28.187c-1.553-0.002-2.811-1.26-2.813-2.812v-0c0-1.199 1.427-3.394 2.041-4.283l0.772-1.117 0.772 1.117c0.613 0.889 2.041 3.084 2.041 4.283 0 1.551-1.262 2.812-2.813 2.812zM18.75 5.625h9.5v5.687h-9.5v-5.687zM5.625 21.626c0.021 0.502 0.432 0.901 0.937 0.901s0.917-0.399 0.937-0.9l0-0.002c-0.008-0.288-0.399-1.105-0.938-2.012-0.54 0.91-0.93 1.726-0.937 2.013zM0 28.188h13.125v3.812h-13.125v-3.812zM0 7.5h13.125v3.812h-13.125v-3.812z"></path>
<path  d="M13.125 13.188h-13.125v13.125h13.125v-13.125zM6.562 24.437c-1.552-0.002-2.81-1.26-2.812-2.812v-0c0-1.199 1.427-3.394 2.040-4.283l0.772-1.117 0.772 1.117c0.613 0.889 2.041 3.085 2.041 4.283 0 1.551-1.262 2.812-2.812 2.812z"></path>
</symbol>
<symbol id="icon-google-plus" viewBox="0 0 30 32">
<path  d="M25.937 13.099v-3.93h-2.62v3.93h-3.93v2.62h3.93v3.93h2.62v-3.93h3.93v-2.62h-3.93zM15.85 17.553l-1.441-1.048c-0.524-0.393-1.048-0.917-1.048-1.834s0.655-1.703 1.31-2.096c1.703-1.31 3.406-2.751 3.406-5.633 0-2.751-1.703-4.323-2.62-5.109h2.227l1.572-1.834h-8.122c-5.764 0-8.646 3.668-8.646 7.597 0 3.013 2.358 6.288 6.55 6.288h1.048c-0.131 0.393-0.524 1.048-0.524 1.703 0 1.31 0.524 1.834 1.179 2.62-1.834 0.131-5.24 0.524-7.729 2.096-2.358 1.441-3.013 3.406-3.013 4.847 0 3.013 2.751 5.895 8.646 5.895 7.074 0 10.48-3.93 10.48-7.728-0-2.751-1.441-4.192-3.275-5.764zM5.895 5.633c0-2.882 1.703-4.192 3.537-4.192 3.406 0 5.24 4.585 5.24 7.205 0 3.406-2.751 4.061-3.799 4.061-3.275 0-4.978-4.061-4.978-7.074zM10.61 29.211c-4.323 0-7.074-1.965-7.074-4.847s2.62-3.799 3.406-4.192c1.703-0.524 3.93-0.655 4.323-0.655s0.655 0 0.917 0c3.144 2.227 4.454 3.144 4.454 5.24 0 2.489-2.489 4.454-6.026 4.454z"></path>
</symbol>
<symbol id="icon-group" viewBox="0 0 39 32">
<path  d="M39.006 3.752c-1.451 0.636-2.996 1.058-4.608 1.263 1.658-0.99 2.923-2.545 3.518-4.42-1.546 0.922-3.252 1.572-5.071 1.936-1.468-1.563-3.559-2.53-5.841-2.53-4.427 0-7.991 3.593-7.991 7.999 0 0.634 0.054 1.243 0.185 1.824-6.648-0.324-12.531-3.511-16.482-8.364-0.69 1.197-1.095 2.567-1.095 4.042 0 2.769 1.426 5.224 3.552 6.646-1.285-0.024-2.545-0.397-3.613-0.985 0 0.024 0 0.056 0 0.088 0 3.886 2.772 7.114 6.407 7.857-0.651 0.178-1.36 0.263-2.097 0.263-0.512 0-1.029-0.029-1.514-0.137 1.036 3.167 3.976 5.495 7.472 5.57-2.721 2.128-6.175 3.411-9.915 3.411-0.656 0-1.285-0.029-1.914-0.11 3.542 2.284 7.74 3.589 12.267 3.589 14.715 0 22.76-12.189 22.76-22.755 0-0.354-0.012-0.695-0.029-1.034 1.587-1.126 2.92-2.533 4.008-4.152z"></path>
</symbol>
<symbol id="icon-vector" viewBox="0 0 16 32">
<path  d="M13.079 5.313h2.921v-5.088c-0.504-0.069-2.237-0.225-4.256-0.225-4.212 0-7.097 2.649-7.097 7.519v4.481h-4.648v5.688h4.648v14.312h5.698v-14.311h4.46l0.708-5.688h-5.169v-3.919c0.001-1.644 0.444-2.769 2.734-2.769z"></path>
</symbol>
<symbol id="icon-logo" viewBox="0 0 55 32">
<path  d="M2.472 14.088l-0.744-2.208c0.288-0.192 0.688-0.368 1.2-0.528 0.528-0.16 1.056-0.28 1.584-0.36 0.528-0.096 0.952-0.144 1.272-0.144 0.912 0 1.736 0.184 2.472 0.552s1.32 0.864 1.752 1.488c0.432 0.624 0.648 1.336 0.648 2.136v7.776h-1.8l-0.408-1.176c-0.416 0.4-0.912 0.744-1.488 1.032s-1.168 0.432-1.776 0.432c-1.392 0-2.424-0.344-3.096-1.032-0.672-0.704-1.008-1.592-1.008-2.664 0-1.184 0.4-2.088 1.2-2.712 0.8-0.64 1.84-0.96 3.12-0.96h2.544v-0.072c-0.016-0.688-0.184-1.248-0.504-1.68-0.32-0.448-0.856-0.672-1.608-0.672-0.608 0-1.216 0.088-1.824 0.264-0.592 0.16-1.104 0.336-1.536 0.528zM3.432 19.392c0 0.384 0.144 0.744 0.432 1.080 0.304 0.32 0.728 0.48 1.272 0.48 0.528 0 1.032-0.12 1.512-0.36s0.92-0.568 1.32-0.984v-2.088h-2.616c-0.624 0-1.104 0.192-1.44 0.576-0.32 0.368-0.48 0.8-0.48 1.296zM16.033 22.8h-2.688v-11.64h1.44l0.888 1.92c0.304-0.272 0.68-0.552 1.128-0.84 0.464-0.304 0.944-0.56 1.44-0.768s0.952-0.312 1.368-0.312l0.552 2.16c-0.576 0-1.256 0.208-2.040 0.624-0.768 0.4-1.464 0.88-2.088 1.44v7.416zM23.439 22.8h-1.416v-16.68l2.688-0.264v5.616c0.768-0.416 1.528-0.624 2.28-0.624 1.2 0 2.232 0.256 3.096 0.768 0.88 0.496 1.552 1.208 2.016 2.136 0.48 0.928 0.72 2.016 0.72 3.264 0 1.2-0.24 2.264-0.72 3.192-0.48 0.912-1.16 1.624-2.040 2.136s-1.92 0.768-3.12 0.768c-0.416 0-0.896-0.096-1.44-0.288s-1.048-0.456-1.512-0.792l-0.552 0.768zM26.943 13.152c-0.432 0-0.832 0.064-1.2 0.192-0.352 0.128-0.696 0.32-1.032 0.576v6.144c0.336 0.256 0.688 0.44 1.056 0.552s0.76 0.168 1.176 0.168c0.976 0 1.736-0.36 2.28-1.080s0.816-1.616 0.816-2.688c0-1.136-0.272-2.064-0.816-2.784-0.528-0.72-1.288-1.080-2.28-1.080zM45.037 17.688h-8.064c0.112 0.928 0.448 1.68 1.008 2.256 0.576 0.576 1.48 0.864 2.712 0.864 0.688 0 1.288-0.096 1.8-0.288s1.056-0.44 1.632-0.744l0.816 1.968c-0.56 0.384-1.192 0.704-1.896 0.96-0.688 0.256-1.488 0.384-2.4 0.384-2.16 0-3.784-0.552-4.872-1.656-1.088-1.12-1.632-2.608-1.632-4.464 0-1.216 0.224-2.28 0.672-3.192 0.464-0.928 1.12-1.648 1.968-2.16s1.864-0.768 3.048-0.768c1.216 0 2.208 0.288 2.976 0.864s1.328 1.344 1.68 2.304c0.368 0.944 0.552 1.976 0.552 3.096v0.576zM37.021 15.888h5.424c-0.144-0.88-0.44-1.552-0.888-2.016-0.432-0.48-1.032-0.72-1.8-0.72s-1.392 0.24-1.872 0.72c-0.464 0.48-0.752 1.152-0.864 2.016zM49.76 22.8h-2.688v-11.64h1.44l0.888 1.92c0.304-0.272 0.68-0.552 1.128-0.84 0.464-0.304 0.944-0.56 1.44-0.768s0.952-0.312 1.368-0.312l0.552 2.16c-0.576 0-1.256 0.208-2.040 0.624-0.768 0.4-1.464 0.88-2.088 1.44v7.416z"></path>
</symbol>
<symbol id="icon-grp" viewBox="0 0 31 32">
<path  d="M16.012 2.181c-1.922 0.097-3.439 1.742-3.34 3.672l0.509 9.928-3.315 1.405c-1.024-1.946-3.377-2.817-5.432-1.946-2.17 0.92-3.183 3.432-2.265 5.613s3.422 3.202 5.592 2.283c1.489-0.631 2.433-2.013 2.582-3.522l4.060-1.721 0.227 4.421c-1.287 0.792-2.113 2.248-2.030 3.87 0.121 2.364 2.127 4.183 4.48 4.065s4.162-2.13 4.041-4.493c-0.115-2.238-1.92-3.987-4.109-4.066l-0.185-3.61 9.115-3.863c1.773-0.751 2.585-2.84 1.835-4.621l-11.142 4.723-0.623-12.137zM7.985 20.366c-0.648 1.039-2.013 1.352-3.048 0.7s-1.349-2.023-0.701-3.062c0.648-1.039 2.013-1.352 3.048-0.7s1.349 2.023 0.701 3.062zM18.733 27.139c-0.648 1.039-2.013 1.352-3.048 0.699s-1.349-2.023-0.701-3.062c0.648-1.039 2.013-1.352 3.048-0.7s1.349 2.023 0.701 3.062z"></path>
</symbol>
</defs>
</svg>
